Coordinates
version=1
nRows=10
nColumns=40
inDegrees=yes

Units are S.I. units (second, meters, Newtons, ...)
If the header above contains a line with 'inDegrees', this indicates whether rotational values are in degrees (yes) or radians (no).

endheader
time	pelvis_tilt	pelvis_list	pelvis_rotation	pelvis_tx	pelvis_ty	pelvis_tz	hip_flexion_r	hip_adduction_r	hip_rotation_r	knee_angle_r	knee_angle_r_beta	ankle_angle_r	subtalar_angle_r	mtp_angle_r	hip_flexion_l	hip_adduction_l	hip_rotation_l	knee_angle_l	knee_angle_l_beta	ankle_angle_l	subtalar_angle_l	mtp_angle_l	lumbar_extension	lumbar_bending	lumbar_rotation	arm_flex_r	arm_add_r	arm_rot_r	elbow_flex_r	pro_sup_r	wrist_flex_r	wrist_dev_r	arm_flex_l	arm_add_l	arm_rot_l	elbow_flex_l	pro_sup_l	wrist_flex_l	wrist_dev_l
      2.80000000	      2.29704263	     -3.56627283	     -2.88512663	     -0.33789038	      0.94190959	     -1.02991385	     32.68805703	      1.53992026	      4.20052070	      7.18215582	      0.12535227	     -4.85012108	      0.00000000	      0.00000000	     10.07227728	     -0.35935603	     -8.87004396	     21.02660196	      0.36698343	     -2.00411053	      0.00000000	      0.00000000	    -14.04331670	      2.58645270	      4.73681003	     82.78650953	    -12.75194090	     22.97082032	     21.04765323	     85.55491382	      0.00000000	      0.00000000	     82.66785421	    -21.85941687	     29.26093760	     30.74748901	     85.25160770	      0.00000000	      0.00000000
      2.80500000	      2.28607255	     -3.58524350	     -2.87267822	     -0.33840934	      0.94158278	     -1.02998186	     32.85408804	      1.56175188	      4.15181670	      7.23868153	      0.12633883	     -4.83839328	      0.00000000	      0.00000000	     10.25441536	     -0.40474422	     -8.86947337	     21.30802362	      0.37189517	     -1.89222795	      0.00000000	      0.00000000	    -14.13350691	      2.60768343	      4.73829702	     82.98538638	    -12.78601663	     23.20451567	     21.01585948	     85.49520320	      0.00000000	      0.00000000	     82.84696953	    -21.85997811	     29.32769834	     30.69287248	     85.22329048	      0.00000000	      0.00000000
      2.81000000	      2.22418471	     -3.56554338	     -2.88749697	     -0.33902715	      0.94118575	     -1.02998680	     33.07956737	      1.55909924	      4.21966923	      7.27066511	      0.12689705	     -4.88053175	      0.00000000	      0.00000000	     10.50550121	     -0.41282677	     -8.84019284	     21.56368240	      0.37635726	     -1.86376238	      0.00000000	      0.00000000	    -14.17572571	      2.57971711	      4.75221050	     83.15565802	    -12.77994218	     23.07083834	     20.99977351	     85.57472738	      0.00000000	      0.00000000	     82.95552699	    -21.84120606	     29.15478275	     30.73247353	     85.32976076	      0.00000000	      0.00000000
      2.81500000	      2.23892954	     -3.54532165	     -2.87021428	     -0.33971139	      0.94078831	     -1.02999897	     33.25440275	      1.54275955	      4.15259188	      7.33965121	      0.12810108	     -4.74342678	      0.00000000	      0.00000000	     10.72091235	     -0.42571278	     -8.81445297	     21.91583536	      0.38250349	     -1.79204382	      0.00000000	      0.00000000	    -14.31685629	      2.53652364	      4.72377762	     83.39882397	    -12.87886704	     23.71756170	     21.02565524	     85.32518192	      0.00000000	      0.00000000	     83.35860562	    -22.05670759	     30.36135218	     30.69258554	     84.90073206	      0.00000000	      0.00000000
      2.82000000	      2.22766781	     -3.56092803	     -2.83452534	     -0.34025488	      0.94045222	     -1.03009008	     33.40370960	      1.54550767	      4.13930303	      7.35610346	      0.12838823	     -4.68395434	      0.00000000	      0.00000000	     10.89924469	     -0.45521336	     -8.72859146	     22.17335028	      0.38699797	     -1.64122844	      0.00000000	      0.00000000	    -14.40700439	      2.56415008	      4.70012188	     83.59599337	    -12.81917594	     23.46903642	     20.88346134	     85.44013270	      0.00000000	      0.00000000	     83.44525822	    -21.90103186	     29.65479030	     30.59754602	     85.09671646	      0.00000000	      0.00000000
      2.82500000	      2.07086220	     -3.59731270	     -2.90232848	     -0.34035578	      0.94000726	     -1.03010813	     33.67832595	      1.62318533	      4.15848681	      7.35598226	      0.12838611	     -4.66883182	      0.00000000	      0.00000000	     11.20088558	     -0.54117240	     -8.81927009	     22.44380077	      0.39171822	     -1.52380903	      0.00000000	      0.00000000	    -14.27529735	      2.60528424	      4.77738692	     83.64546949	    -12.80844702	     23.20886671	     20.88252118	     85.55631432	      0.00000000	      0.00000000	     83.43683972	    -21.85438089	     29.40672679	     30.61770978	     85.16567775	      0.00000000	      0.00000000
      2.83000000	      2.07300580	     -3.61349674	     -2.87766157	     -0.34097917	      0.93960853	     -1.03015608	     33.84587118	      1.63371812	      4.10168811	      7.36357515	      0.12851863	     -4.67157724	      0.00000000	      0.00000000	     11.41641498	     -0.59120233	     -8.79561601	     22.77921901	      0.39757237	     -1.41433354	      0.00000000	      0.00000000	    -14.40239071	      2.62646636	      4.75339937	     83.87055888	    -12.83569505	     23.41179900	     20.87869077	     85.46461570	      0.00000000	      0.00000000	     83.64461235	    -21.87004311	     29.45710340	     30.58573223	     85.23282290	      0.00000000	      0.00000000
      2.83500000	      2.15292793	     -3.61983602	     -2.78176574	     -0.34180412	      0.93930275	     -1.03017082	     33.89426194	      1.60184139	      4.06153345	      7.30487976	      0.12749420	     -4.64441023	      0.00000000	      0.00000000	     11.57281436	     -0.61865961	     -8.66817383	     23.12466517	      0.40360155	     -1.35435017	      0.00000000	      0.00000000	    -14.62658283	      2.62899350	      4.66399261	     84.14990086	    -12.70935704	     23.02274795	     20.68476218	     85.21785988	      0.00000000	      0.00000000	     83.81872275	    -21.70283326	     28.77228017	     30.46240154	     85.00131645	      0.00000000	      0.00000000
      2.84000000	      2.09947584	     -3.59296236	     -2.80358875	     -0.34242967	      0.93874826	     -1.03013674	     34.20043067	      1.61123611	      3.97534394	      7.47122939	      0.13039755	     -4.49734453	      0.00000000	      0.00000000	     11.84045368	     -0.64417975	     -8.75841072	     23.45515924	      0.40936976	     -1.26415553	      0.00000000	      0.00000000	    -14.67254404	      2.57214180	      4.71397874	     84.31712457	    -12.95888342	     23.90912994	     20.89133329	     85.33427879	      0.00000000	      0.00000000	     84.15477540	    -21.90500262	     29.92631725	     30.47444551	     85.14879036	      0.00000000	      0.00000000
      2.84500000	      2.06793192	     -3.50963254	     -2.86659548	     -0.34312511	      0.93824736	     -1.03012924	     34.40612399	      1.58341003	      4.13350285	      7.44464133	      0.12993350	     -4.52117572	      0.00000000	      0.00000000	     12.07240802	     -0.61105325	     -8.93776420	     23.74903505	      0.41449886	     -1.21494834	      0.00000000	      0.00000000	    -14.75328898	      2.46737471	      4.75306689	     84.52776418	    -12.93123429	     23.80166007	     20.84127469	     85.29583498	      0.00000000	      0.00000000	     84.34913319	    -21.86652650	     29.77877401	     30.41260163	     85.12733402	      0.00000000	      0.00000000
